<svg width="532" height="447" viewBox="0 0 532 447" fill="none" xmlns="http://www.w3.org/2000/svg">
<path d="M265.898 446.5C412.75 446.5 531.797 400.497 531.797 343.75C531.797 287.003 412.75 241 265.898 241C119.047 241 0 287.003 0 343.75C0 400.497 119.047 446.5 265.898 446.5Z" fill="url(#paint0_linear_2629_25530)"/>
<path fill-rule="evenodd" clip-rule="evenodd" d="M174.308 79H346V286H174.308C166.406 286 160 278.94 160 270.23V94.7697C160 86.0603 166.406 79 174.308 79Z" fill="url(#paint1_linear_2629_25530)"/>
<g filter="url(#filter0_dd_2629_25530)">
<path d="M204.7 222.965C165.022 205.824 166.529 120.118 160 98V263C160 275.703 170.297 286 183 286H272C266.978 266.463 244.377 240.106 204.7 222.965Z" fill="url(#paint2_linear_2629_25530)"/>
</g>
<path fill-rule="evenodd" clip-rule="evenodd" d="M348 79H380.758C388.623 79 395 86.0603 395 94.7697V270.23C395 278.94 388.623 286 380.758 286H348V79Z" fill="url(#paint3_linear_2629_25530)"/>
<path d="M348 79L348 286" stroke="white" stroke-width="3.77293"/>
<g filter="url(#filter1_i_2629_25530)">
<path d="M308.973 188.487C308.965 184.581 306.502 181.179 302.955 180.051C301.577 179.611 300.148 179.546 298.712 179.611C298.074 179.64 297.715 179.67 297.789 178.702C297.965 176.335 297.994 173.938 297.891 171.556C297.554 163.714 292.071 157.102 284.346 155.087C277.016 153.174 269.166 156.391 264.952 162.878C261.58 168.052 262.027 173.747 262.298 179.61C261.309 179.61 260.415 179.589 259.527 179.61C254.858 179.735 251.135 183.429 251.113 188.09C251.069 197.875 251.061 207.66 251.113 217.444C251.142 222.202 254.843 226.094 259.571 226.122C273.292 226.21 287.02 226.203 300.741 226.122C305.307 226.093 308.95 222.245 308.972 217.664C309.009 207.94 309.002 198.213 308.973 188.487ZM284.522 203.161C283.804 203.703 283.584 204.217 283.605 205.06C283.657 207.2 283.642 209.348 283.62 211.488C283.584 213.958 282.183 215.446 279.97 215.409C277.837 215.38 276.503 213.914 276.467 211.524C276.445 210.271 276.43 209.025 276.467 207.772C276.533 205.594 276.459 203.755 274.495 201.996C272.377 200.091 272.34 197.196 273.586 194.535C274.876 191.793 277.148 190.518 279.596 190.342C283.092 190.379 285.885 192.446 286.845 195.32C287.797 198.184 286.933 201.336 284.522 203.161ZM289.491 179.634C286.39 179.575 283.29 179.611 280.19 179.611C277.03 179.611 273.864 179.546 270.705 179.64C269.473 179.678 269.232 179.252 269.276 178.138C269.364 176.232 269.283 174.319 269.305 172.414C269.371 166.447 274.069 161.735 279.97 161.706C285.877 161.677 290.649 166.337 290.773 172.304C290.817 174.334 290.714 176.365 290.802 178.388C290.847 179.457 290.451 179.648 289.491 179.634Z" fill="#D9D9D9"/>
</g>
<path fill-rule="evenodd" clip-rule="evenodd" d="M245.658 62.3442L243.404 49.8184H230.086V64.353L245.658 62.3442Z" fill="#171717"/>
<path fill-rule="evenodd" clip-rule="evenodd" d="M219.653 61.4318L221.783 49.8184H231.491L232.791 62.3442L232.221 74.7764L218.356 74.8963L219.099 65.6442C219.212 64.2316 219.397 62.8257 219.653 61.4318Z" fill="#171717"/>
<path fill-rule="evenodd" clip-rule="evenodd" d="M219.734 61.4306C223.493 65.5066 223.236 71.8581 219.16 75.6172C217.443 77.2008 215.227 78.1361 212.894 78.262L195.342 79.2093L191.786 65.4074L219.734 61.4306Z" fill="#171717"/>
<path fill-rule="evenodd" clip-rule="evenodd" d="M199.167 64.543L188.764 113.113H179.875L186.618 70.2439C187.039 67.5659 189.218 65.5116 191.917 65.2489L199.167 64.543Z" fill="#171717"/>
<path fill-rule="evenodd" clip-rule="evenodd" d="M179.875 113.113H188.775L187.644 121.151C187.556 121.78 187.017 122.248 186.382 122.248H171.889C171.398 122.248 171 121.85 171 121.359C171 121.244 171.022 121.13 171.066 121.023L171.575 119.776C172.202 118.242 173.584 117.145 175.221 116.885L179.539 116.199L179.875 113.113Z" fill="#171717"/>
<path fill-rule="evenodd" clip-rule="evenodd" d="M245.625 62.3244L246.648 67.4106C247.573 72.0105 244.594 76.4894 239.994 77.4146C239.63 77.4878 239.262 77.5371 238.891 77.5621L204.391 79.893L204.775 67.0676L245.625 62.3244Z" fill="#171717"/>
<path fill-rule="evenodd" clip-rule="evenodd" d="M214.917 65.8965L215.632 113.114H206.074L201.217 73.2614C200.82 70.0012 203.141 67.0361 206.401 66.6387C206.47 66.6304 206.538 66.6232 206.607 66.6173L214.917 65.8965Z" fill="#171717"/>
<path fill-rule="evenodd" clip-rule="evenodd" d="M206.086 113.113H215.643V120.973C215.643 121.677 215.073 122.248 214.369 122.248H198.777C198.286 122.248 197.888 121.85 197.888 121.359C197.888 121.244 197.91 121.13 197.954 121.023L198.463 119.776C199.09 118.24 200.468 117.138 202.105 116.864L206.086 116.199V113.113Z" fill="#171717"/>
<path fill-rule="evenodd" clip-rule="evenodd" d="M225.802 54.2656C227.146 54.4401 228.044 54.4375 228.929 54.3163C229.22 54.2765 229.45 54.2994 229.615 54.3858L229.843 56.5118C227.925 57.4061 227.119 57.4176 226.322 57.3085C225.935 57.2556 225.666 57.1709 225.494 57.0492C225.368 56.9609 225.315 56.8514 225.315 56.7284V54.7721C225.315 54.6322 225.371 54.5054 225.463 54.4137C225.55 54.3263 225.67 54.2706 225.802 54.2656Z" stroke="#DDDDDD" stroke-width="0.54"/>
<path fill-rule="evenodd" clip-rule="evenodd" d="M215.474 38.2702L243.917 36.4043L244.784 57.522H220.264L220.182 46.8138L215.474 38.2702Z" fill="white"/>
<path fill-rule="evenodd" clip-rule="evenodd" d="M214.765 25.5415L217.756 24.3985C222.16 22.7156 226.824 21.8135 231.538 21.7327L235.205 21.6699L245.283 24.4616C247.065 24.9552 248.44 26.375 248.876 28.1718L254.605 51.7776L246.501 55.4853L240.908 37.8926L218.356 43.8778L216.236 58.33L214.332 62.357L204.376 63.7722L208.422 53.1492L210.701 30.8458C210.946 28.4521 212.518 26.4004 214.765 25.5415Z" fill="white"/>
<mask id="mask0_2629_25530" style="mask-type:alpha" x="224" y="14" width="10" height="12">
<path d="M224.461 14.3008H233.008L232.977 21.9494L228.555 25.8548L224.492 21.9494L224.461 14.3008Z" fill="white"/>
</mask>
<g mask="url(#mask0_2629_25530)">
<path d="M224.461 14.3008H233.008L232.977 21.9494L228.555 25.8548L224.492 21.9494L224.461 14.3008Z" fill="#FFB999"/>
<path fill-rule="evenodd" clip-rule="evenodd" d="M234.692 16.0156H222.729V22.063L224.205 22.1736C228.642 22.5064 232.821 20.0528 234.692 16.0156Z" fill="#FF9667" fill-opacity="0.8"/>
</g>
<path fill-rule="evenodd" clip-rule="evenodd" d="M226.6 28.8848H229.574L232.118 57.9346L228.09 60.7188L224.056 57.9346L226.6 28.8848Z" fill="#171717"/>
<path fill-rule="evenodd" clip-rule="evenodd" d="M225.383 24.5098H230.79L229.573 28.8856H226.6L225.383 24.5098Z" fill="#171717"/>
<path fill-rule="evenodd" clip-rule="evenodd" d="M224.43 21.7344L227.917 24.3606L224.293 27.4931L222.218 22.9822L224.43 21.7344Z" fill="white"/>
<path fill-rule="evenodd" clip-rule="evenodd" d="M233.024 20.8848L227.917 24.3606L232.003 28.3426L235.63 21.6692L233.024 20.8848Z" fill="white"/>
<path fill-rule="evenodd" clip-rule="evenodd" d="M248.121 48.1516C246.142 48.8163 245.076 50.9598 245.741 52.9391C245.748 52.9624 245.757 52.9856 245.765 53.0087L253.291 74.0528L258.564 71.9534L252.785 50.645C252.259 48.7082 250.264 47.564 248.327 48.0893C248.258 48.108 248.189 48.1288 248.121 48.1516Z" fill="#FFB999"/>
<path fill-rule="evenodd" clip-rule="evenodd" d="M253.291 74.0974L254.448 69.1617L259.53 69.1617L260.561 69.1617C261.147 69.1617 261.724 69.3051 262.242 69.5794L265.239 71.1672L268.298 72.3287C268.722 72.4897 269 72.8986 268.993 73.3519C268.987 73.7705 268.646 74.1067 268.228 74.1065L253.291 74.0974Z" fill="#FFB999"/>
<path fill-rule="evenodd" clip-rule="evenodd" d="M250.447 67.2558L258.514 66.9075L253.081 45.363L244.413 49.334L250.447 67.2558Z" fill="white"/>
<path fill-rule="evenodd" clip-rule="evenodd" d="M223.492 2.78498L223.958 2.76055C224.446 1.06823 226.196 0.074881 227.899 0.522847L232.375 1.69989L233.23 1.95667C234.435 2.31881 235.231 3.4654 235.148 4.72135L234.752 10.7478C234.591 13.191 233.567 15.4974 231.861 17.2543L224.422 14.2217C223.121 13.6909 222.179 12.5328 221.926 11.1498L220.976 5.97015C220.707 4.50257 221.678 3.0947 223.146 2.82559C223.26 2.80463 223.376 2.79107 223.492 2.78498Z" fill="#681E20"/>
<path fill-rule="evenodd" clip-rule="evenodd" d="M222.454 10.5061L223.456 10.7395L223.644 14.3375L223.427 14.2771C222.415 13.9956 221.697 13.0992 221.642 12.0505L221.598 11.2228C221.578 10.8376 221.874 10.509 222.259 10.4888C222.325 10.4854 222.39 10.4912 222.454 10.5061Z" fill="#FFB999"/>
<path fill-rule="evenodd" clip-rule="evenodd" d="M233.475 10.037L232.647 10.2588L232.836 13.8568L233.675 13.6026C234.663 13.3032 235.319 12.3685 235.265 11.3376C235.224 10.5525 234.554 9.94937 233.769 9.99052C233.67 9.99572 233.571 10.0113 233.475 10.037Z" fill="#FFB999"/>
<path fill-rule="evenodd" clip-rule="evenodd" d="M227.512 3.49113C230.323 3.34379 232.721 5.50339 232.869 8.31474L233.175 14.1687C233.323 16.98 231.163 19.3785 228.352 19.5259C225.541 19.6676 223.146 17.5076 222.998 14.6974L222.69 8.8482C222.541 6.03785 224.699 3.63944 227.51 3.49122C227.51 3.49119 227.511 3.49116 227.512 3.49113Z" fill="#FFB999"/>
<path opacity="0.5" fill-rule="evenodd" clip-rule="evenodd" d="M222.87 5.22266C225.154 7.84446 229.095 8.21077 231.823 6.05494L232.572 5.46261L222.87 5.22266Z" fill="#F4956A"/>
<path fill-rule="evenodd" clip-rule="evenodd" d="M222.645 9.13856C221.143 5.28386 222.82 3.22926 227.676 2.97477C232.532 2.72029 234.489 4.95133 233.547 9.66792C233.462 8.79271 233.291 8.10074 233.032 7.592C232.644 6.82889 232.053 5.57204 231.126 5.62063C230.199 5.66921 230.028 6.25486 227.536 6.38547C226.078 6.46186 224.763 6.24199 223.589 5.72586C223.445 5.87533 223.261 6.22126 223.038 6.76364C222.815 7.30602 222.684 8.09766 222.645 9.13856Z" fill="#681E20"/>
<path d="M92 72H121.433V130.836H92V72Z" fill="white"/>
<path d="M426 211H486V299H426V211Z" fill="white"/>
<path d="M464 241H507V294H464V241Z" fill="url(#paint4_linear_2629_25530)"/>
<defs>
<filter id="filter0_dd_2629_25530" x="156" y="93" width="120" height="197" color-interpolation-filters="sRGB">
<feFlood flood-opacity="0" result="BackgroundImageFix"/>
<feColorMatrix in="SourceAlpha" values="0 0 0 0 0 0 0 0 0 0 0 0 0 0 0 0 0 0 127 0" result="hardAlpha"/>
<feOffset/>
<feGaussianBlur stdDeviation="2"/>
<feComposite in2="hardAlpha" operator="out"/>
<feColorMatrix values="0 0 0 0 0 0 0 0 0 0 0 0 0 0 0 0 0 0 0.1 0"/>
<feBlend in2="BackgroundImageFix" result="effect1_dropShadow_2629_25530"/>
<feColorMatrix in="SourceAlpha" values="0 0 0 0 0 0 0 0 0 0 0 0 0 0 0 0 0 0 127 0" result="hardAlpha"/>
<feOffset dx="1" dy="-3"/>
<feGaussianBlur stdDeviation="1"/>
<feComposite in2="hardAlpha" operator="out"/>
<feColorMatrix values="0 0 0 0 1 0 0 0 0 1 0 0 0 0 1 0 0 0 0.7 0"/>
<feBlend in2="effect1_dropShadow_2629_25530" result="effect2_dropShadow_2629_25530"/>
<feBlend in="SourceGraphic" in2="effect2_dropShadow_2629_25530" result="shape"/>
</filter>
<filter id="filter1_i_2629_25530" x="251.077" y="154.539" width="58.9202" height="72.6465" color-interpolation-filters="sRGB">
<feFlood flood-opacity="0" result="BackgroundImageFix"/>
<feBlend in="SourceGraphic" in2="BackgroundImageFix" result="shape"/>
<feColorMatrix in="SourceAlpha" values="0 0 0 0 0 0 0 0 0 0 0 0 0 0 0 0 0 0 127 0" result="hardAlpha"/>
<feOffset dx="1" dy="2"/>
<feGaussianBlur stdDeviation="0.5"/>
<feComposite in2="hardAlpha" operator="arithmetic" k2="-1" k3="1"/>
<feColorMatrix values="0 0 0 0 0 0 0 0 0 0 0 0 0 0 0 0 0 0 0.1 0"/>
<feBlend in2="shape" result="effect1_innerShadow_2629_25530"/>
</filter>
<linearGradient id="paint0_linear_2629_25530" x1="265.898" y1="249.218" x2="265.898" y2="335.918" gradientUnits="userSpaceOnUse">
<stop stop-color="#D3D3D3"/>
<stop offset="1" stop-color="#F3F3F3" stop-opacity="0"/>
</linearGradient>
<linearGradient id="paint1_linear_2629_25530" x1="252.753" y1="79.2954" x2="252.753" y2="285.747" gradientUnits="userSpaceOnUse">
<stop stop-color="#DDDDDD"/>
<stop offset="1" stop-color="#F4F4F4"/>
</linearGradient>
<linearGradient id="paint2_linear_2629_25530" x1="233.83" y1="286" x2="195.703" y2="81.515" gradientUnits="userSpaceOnUse">
<stop stop-color="#DDDDDD"/>
<stop offset="1" stop-color="#F4F4F4"/>
</linearGradient>
<linearGradient id="paint3_linear_2629_25530" x1="371.438" y1="79.2954" x2="371.438" y2="285.747" gradientUnits="userSpaceOnUse">
<stop stop-color="#DDDDDD"/>
<stop offset="1" stop-color="#F4F4F4"/>
</linearGradient>
<linearGradient id="paint4_linear_2629_25530" x1="485.5" y1="241" x2="485.5" y2="294" gradientUnits="userSpaceOnUse">
<stop stop-color="#F5F5F5"/>
<stop offset="1" stop-color="white"/>
</linearGradient>
</defs>
</svg>
