<svg width="511" height="411" viewBox="0 0 511 411" fill="none" xmlns="http://www.w3.org/2000/svg">
<g clip-path="url(#clip0_2629_25138)">
<path d="M256.985 515.238C403.837 515.238 522.884 469.236 522.884 412.488C522.884 355.741 403.837 309.738 256.985 309.738C110.134 309.738 -8.91284 355.741 -8.91284 412.488C-8.91284 469.236 110.134 515.238 256.985 515.238Z" fill="url(#paint0_linear_2629_25138)"/>
<path d="M254.869 384.031C336.067 384.031 401.892 318.294 401.892 237.203C401.892 156.112 336.067 90.375 254.869 90.375C173.671 90.375 107.847 156.112 107.847 237.203C107.847 318.294 173.671 384.031 254.869 384.031Z" fill="url(#paint1_linear_2629_25138)"/>
<g filter="url(#filter0_i_2629_25138)">
<path d="M272.43 134.085C284.513 134.085 294.308 129.384 294.308 123.585C294.308 117.787 284.513 113.086 272.43 113.086C260.347 113.086 250.552 117.787 250.552 123.585C250.552 129.384 260.347 134.085 272.43 134.085Z" fill="#DDDDDD"/>
</g>
<g filter="url(#filter1_i_2629_25138)">
<path d="M235.686 271.395C241.369 271.395 245.977 267.056 245.977 261.703C245.977 256.351 241.369 252.012 235.686 252.012C230.002 252.012 225.395 256.351 225.395 261.703C225.395 267.056 230.002 271.395 235.686 271.395Z" fill="#DDDDDD"/>
</g>
<g filter="url(#filter2_i_2629_25138)">
<path d="M166.687 267.352C181.135 267.352 192.847 258.285 192.847 247.1C192.847 235.915 181.135 226.848 166.687 226.848C152.239 226.848 140.527 235.915 140.527 247.1C140.527 258.285 152.239 267.352 166.687 267.352Z" fill="#DDDDDD"/>
</g>
<path d="M447.179 152.58C459.706 180.679 383.762 241.742 277.552 288.967C171.342 336.192 75.0865 351.697 62.5593 323.597C55.8705 308.594 74.4043 284.193 109.3 257.519C109.424 258.402 109.556 259.286 109.697 260.172C110.283 263.872 111.057 269.03 112.358 273.615C88.7631 291.381 76.3868 306.356 80.2403 315C88.7785 334.152 173.762 314.968 270.055 272.152C366.349 229.336 437.489 179.101 428.951 159.949C425.131 151.381 406.012 150.486 377.424 155.946C375.968 153.557 374.407 151.605 373.861 150.856C371.869 148.124 369.787 145.467 367.62 142.889C410.349 135.04 440.536 137.679 447.179 152.58Z" fill="url(#paint2_linear_2629_25138)"/>
<path d="M447.179 152.58C459.706 180.679 383.762 241.742 277.552 288.967C171.342 336.192 75.0865 351.697 62.5593 323.597C55.8705 308.594 74.4043 284.193 109.3 257.519C109.424 258.402 109.556 259.286 109.697 260.172C110.283 263.872 111.057 269.03 112.358 273.615C88.7631 291.381 76.3868 306.356 80.2403 315C88.7785 334.152 173.762 314.968 270.055 272.152C366.349 229.336 437.489 179.101 428.951 159.949C425.131 151.381 406.012 150.486 377.424 155.946C375.968 153.557 374.407 151.605 373.861 150.856C371.869 148.124 369.787 145.467 367.62 142.889C410.349 135.04 440.536 137.679 447.179 152.58Z" fill="url(#paint3_linear_2629_25138)"/>
<path fill-rule="evenodd" clip-rule="evenodd" d="M347.603 271.323L353.776 267.536L352.415 284.083C352.171 287.049 349.566 289.255 346.597 289.01C345.994 288.961 345.404 288.81 344.852 288.565L345.219 275.443C345.267 273.755 346.163 272.206 347.603 271.323Z" fill="#FFB999"/>
<path fill-rule="evenodd" clip-rule="evenodd" d="M351.31 286.554L344.848 288.564L344.685 297.168L342.272 301.074L337.548 308.239C337.355 308.525 337.434 308.913 337.722 309.103C337.851 309.189 338.008 309.223 338.161 309.2C339.975 308.919 341.476 308.204 342.666 307.057C343.292 306.453 344.52 305.269 346.35 303.503L348.287 302.135C349.296 301.422 350.006 300.362 350.278 299.157L351.091 295.571C351.578 293.282 351.956 290.889 352.227 288.392C352.497 285.895 352.191 285.283 351.31 286.554Z" fill="#FFB999"/>
<path fill-rule="evenodd" clip-rule="evenodd" d="M337.788 307.938C340.203 305.295 341.735 303.661 342.383 303.036C343.031 302.412 343.873 301.756 344.91 301.069L344.684 297.169L343.767 297.937C342.832 298.72 342.085 299.702 341.581 300.812C341.071 301.935 340.516 303.037 339.916 304.115L337.788 307.938Z" fill="#FFA780"/>
<path fill-rule="evenodd" clip-rule="evenodd" d="M341.809 272.932L338.85 260.896H324.144L321.914 277.649L331.807 397.428H344.606L343.424 285.707C343.379 281.401 342.837 277.114 341.809 272.932Z" fill="#181818"/>
<path fill-rule="evenodd" clip-rule="evenodd" d="M306.65 271.688L309.328 260.896H326.026V277.649L315.004 397.428H302.205L305.019 283.788C305.121 279.707 305.667 275.65 306.65 271.688Z" fill="#181818"/>
<path fill-rule="evenodd" clip-rule="evenodd" d="M307.586 268.639L313.842 269.856C320.709 271.192 327.769 271.184 334.633 269.832L340.684 268.639L339.562 264.127L332.027 265.181C326.86 265.904 321.618 265.914 316.448 265.21L308.499 264.127L307.586 268.639Z" fill="#171717"/>
<path fill-rule="evenodd" clip-rule="evenodd" d="M331.791 397.428H344.59V407.94C344.59 408.881 343.826 409.644 342.883 409.644H320.296C319.639 409.644 319.106 409.112 319.106 408.455C319.106 408.301 319.136 408.149 319.194 408.006L319.876 406.339C320.714 404.29 322.573 402.836 324.765 402.514L331.304 401.555L331.791 397.428Z" fill="black"/>
<path fill-rule="evenodd" clip-rule="evenodd" d="M302.182 397.428H314.981L313.703 408.142C313.601 408.999 312.873 409.644 312.009 409.644H290.754C290.097 409.644 289.564 409.112 289.564 408.455C289.564 408.301 289.594 408.149 289.652 408.006L290.334 406.339C291.171 404.291 293.032 402.84 295.224 402.525L301.982 401.555L302.182 397.428Z" fill="black"/>
<path fill-rule="evenodd" clip-rule="evenodd" d="M343.742 236.012H304.005L308.431 264.054L316.661 265.182C321.944 265.905 327.304 265.883 332.582 265.116L339.885 264.054L343.742 236.012Z" fill="#FBFBFB"/>
<path fill-rule="evenodd" clip-rule="evenodd" d="M346.205 219.334C338.883 216.757 331.545 215.468 324.192 215.468C315.57 215.468 308.841 216.105 304.005 217.377L288.471 212.182L279.466 222.935L304.005 236.713H340.743L340.435 245.388L353.779 242.566L350.658 224.597C350.235 222.168 348.533 220.156 346.205 219.334Z" fill="#FBFBFB"/>
<mask id="mask0_2629_25138" style="mask-type:alpha" x="318" y="206" width="12" height="10">
<path d="M328.896 206.07H319.372L318.333 215.413H329.935L328.896 206.07Z" fill="white"/>
</mask>
<g mask="url(#mask0_2629_25138)">
<path d="M328.896 206.07H319.372L318.333 215.413H329.935L328.896 206.07Z" fill="#FFB999"/>
<path fill-rule="evenodd" clip-rule="evenodd" d="M331.772 204.24L318.443 204.808V211.808L319.242 211.876C324.639 212.33 329.708 209.241 331.772 204.24Z" fill="#FF9667" fill-opacity="0.8"/>
<path d="M316.779 212.182H331.466V216.426H316.779V212.182Z" fill="#F6F6F6"/>
</g>
<path fill-rule="evenodd" clip-rule="evenodd" d="M355.439 256.289L353.779 242.438L340.002 243.589L344.078 257.832L355.439 256.289Z" fill="#FBFBFB"/>
<path fill-rule="evenodd" clip-rule="evenodd" d="M352.99 286.455L355.439 256.289L344.078 257.831L344.233 285.777L352.99 286.455Z" fill="#FBFBFB"/>
<path fill-rule="evenodd" clip-rule="evenodd" d="M330.2 196.575L329.077 196.813V201.632L330.217 201.351C331.559 201.02 332.502 199.818 332.502 198.437C332.502 197.386 331.649 196.533 330.596 196.533C330.463 196.533 330.33 196.547 330.2 196.575Z" fill="#FFB999"/>
<path fill-rule="evenodd" clip-rule="evenodd" d="M320.984 187.414H322.683C326.453 187.414 329.509 190.466 329.509 194.231V202.008C329.509 205.706 326.508 208.703 322.805 208.703C322.744 208.703 322.683 208.703 322.622 208.701L320.594 208.256C317.76 207.635 315.633 205.285 315.301 202.407C314.931 199.209 314.921 195.98 315.27 192.78L315.301 192.504C315.617 189.608 318.067 187.414 320.984 187.414Z" fill="#FFB999"/>
<path fill-rule="evenodd" clip-rule="evenodd" d="M317.503 188.079L319.246 187.453C320.018 185.227 322.427 184.023 324.674 184.74L330.577 186.626L331.429 186.931C333.176 187.556 334.258 189.303 334.04 191.143L333.005 199.857C332.691 202.501 331.593 204.991 329.852 207.007C329.058 208.004 327.705 208.566 325.793 208.695C322.926 208.888 322.056 208.664 320.07 206.821C319.175 205.991 317.378 202.888 317.378 201.632C317.378 201.419 318.475 201.632 318.475 198.859C318.475 198.838 318.474 198.801 318.472 198.748C318.435 197.862 317.686 197.173 316.798 197.209C316.593 197.218 316.392 197.265 316.205 197.349L316.141 197.235C315.227 195.593 314.785 193.731 314.863 191.854L314.871 191.657C314.938 190.04 315.979 188.626 317.503 188.079Z" fill="#181818"/>
<path fill-rule="evenodd" clip-rule="evenodd" d="M317.044 195.878C315.305 190.625 317.691 187.998 324.203 187.998C330.715 187.998 333.176 191.115 331.585 197.348C331.534 196.173 331.353 195.237 331.043 194.54C330.577 193.493 329.875 191.773 328.631 191.773C327.388 191.773 327.119 192.543 323.777 192.543C321.822 192.543 320.078 192.158 318.546 191.386C318.342 191.576 318.072 192.025 317.736 192.734C317.399 193.443 317.169 194.491 317.044 195.878Z" fill="black"/>
<path fill-rule="evenodd" clip-rule="evenodd" d="M283.726 206.618L286.906 216.201L309.607 202.375C311.132 201.446 311.708 199.516 310.941 197.902C310.191 196.324 308.317 195.633 306.722 196.346L283.726 206.618Z" fill="#FFB999"/>
<path fill-rule="evenodd" clip-rule="evenodd" d="M312.495 200.354L309.173 196.026L318.647 189.087L323.809 189.767C324.174 189.815 324.514 189.984 324.773 190.246L326.708 192.206C327.081 192.584 327.133 193.173 326.831 193.609L324.623 196.801C324.397 197.128 324.061 197.363 323.676 197.462L312.495 200.354Z" fill="#FFB999"/>
<path fill-rule="evenodd" clip-rule="evenodd" d="M310.218 192.166L280.91 207.773C276.478 210.133 274.804 215.637 277.169 220.067C277.737 221.13 278.51 222.069 279.444 222.831L314.645 201.499L310.218 192.166Z" fill="#FBFBFB"/>
<path d="M426 276H485.937V382.778H426V276Z" fill="white"/>
<path d="M1.67003 154.719H39.8115V230.901H1.67003V154.719Z" fill="white"/>
<path d="M464.142 329.389H507.732V372.921H464.142V329.389Z" fill="url(#paint4_linear_2629_25138)"/>
</g>
<defs>
<filter id="filter0_i_2629_25138" x="250.552" y="113.086" width="44.7554" height="21.998" color-interpolation-filters="sRGB">
<feFlood flood-opacity="0" result="BackgroundImageFix"/>
<feBlend in="SourceGraphic" in2="BackgroundImageFix" result="shape"/>
<feColorMatrix in="SourceAlpha" values="0 0 0 0 0 0 0 0 0 0 0 0 0 0 0 0 0 0 127 0" result="hardAlpha"/>
<feOffset dx="1" dy="2"/>
<feGaussianBlur stdDeviation="0.5"/>
<feComposite in2="hardAlpha" operator="arithmetic" k2="-1" k3="1"/>
<feColorMatrix values="0 0 0 0 0 0 0 0 0 0 0 0 0 0 0 0 0 0 0.05 0"/>
<feBlend in2="shape" result="effect1_innerShadow_2629_25138"/>
</filter>
<filter id="filter1_i_2629_25138" x="225.395" y="252.012" width="21.5818" height="20.3828" color-interpolation-filters="sRGB">
<feFlood flood-opacity="0" result="BackgroundImageFix"/>
<feBlend in="SourceGraphic" in2="BackgroundImageFix" result="shape"/>
<feColorMatrix in="SourceAlpha" values="0 0 0 0 0 0 0 0 0 0 0 0 0 0 0 0 0 0 127 0" result="hardAlpha"/>
<feOffset dx="1" dy="2"/>
<feGaussianBlur stdDeviation="0.5"/>
<feComposite in2="hardAlpha" operator="arithmetic" k2="-1" k3="1"/>
<feColorMatrix values="0 0 0 0 0 0 0 0 0 0 0 0 0 0 0 0 0 0 0.05 0"/>
<feBlend in2="shape" result="effect1_innerShadow_2629_25138"/>
</filter>
<filter id="filter2_i_2629_25138" x="140.527" y="226.848" width="53.3198" height="41.5039" color-interpolation-filters="sRGB">
<feFlood flood-opacity="0" result="BackgroundImageFix"/>
<feBlend in="SourceGraphic" in2="BackgroundImageFix" result="shape"/>
<feColorMatrix in="SourceAlpha" values="0 0 0 0 0 0 0 0 0 0 0 0 0 0 0 0 0 0 127 0" result="hardAlpha"/>
<feOffset dx="1" dy="2"/>
<feGaussianBlur stdDeviation="0.5"/>
<feComposite in2="hardAlpha" operator="arithmetic" k2="-1" k3="1"/>
<feColorMatrix values="0 0 0 0 0 0 0 0 0 0 0 0 0 0 0 0 0 0 0.05 0"/>
<feBlend in2="shape" result="effect1_innerShadow_2629_25138"/>
</filter>
<linearGradient id="paint0_linear_2629_25138" x1="256.985" y1="317.956" x2="256.985" y2="404.656" gradientUnits="userSpaceOnUse">
<stop stop-color="#D3D3D3"/>
<stop offset="1" stop-color="#F3F3F3" stop-opacity="0"/>
</linearGradient>
<linearGradient id="paint1_linear_2629_25138" x1="254.869" y1="384.031" x2="254.869" y2="90.375" gradientUnits="userSpaceOnUse">
<stop stop-color="#DDDDDD"/>
<stop offset="1" stop-color="#F4F4F4"/>
</linearGradient>
<linearGradient id="paint2_linear_2629_25138" x1="63.5918" y1="249.055" x2="433.471" y2="168.745" gradientUnits="userSpaceOnUse">
<stop stop-color="#E7E7E7"/>
<stop offset="1" stop-color="#DDDDDD"/>
</linearGradient>
<linearGradient id="paint3_linear_2629_25138" x1="243.483" y1="212.065" x2="249.717" y2="266.022" gradientUnits="userSpaceOnUse">
<stop stop-color="#F6F6F6"/>
<stop offset="1" stop-color="#EEEEEE"/>
</linearGradient>
<linearGradient id="paint4_linear_2629_25138" x1="485.937" y1="329.389" x2="485.937" y2="372.921" gradientUnits="userSpaceOnUse">
<stop stop-color="#F6F6F6"/>
<stop offset="1" stop-color="white"/>
</linearGradient>
<clipPath id="clip0_2629_25138">
<rect width="511" height="411" fill="white"/>
</clipPath>
</defs>
</svg>
